# xmcd
#
# Track frame offsets:
#	150
#	18237
#	35512
#	52562
#	74275
#	92675
#	112050
#	131812
#	150712
#	168862
#	188300
#	211000
#	230575
#	252550
#	273650
#	291387
#	310775
#
# Disc length: 4436 seconds
#
# Revision: 1
# Processed by: cddbd v1.5.2PL0 Copyright (c) Steve Scherf et al.
# Submitted via: audiograbber 1.83.01
#
DISCID=e8115211
DTITLE=王傑 - 王傑 Giving
DYEAR=1900
DGENRE=
TTITLE0=心癮
TTITLE1=又愛孤獨又愛你
TTITLE2=可能 - Radio Edit
TTITLE3=飄流物語
TTITLE4=相見歡
TTITLE5=哭泣情歌
TTITLE6=失敗者
TTITLE7=再遇
TTITLE8=溫柔的你
TTITLE9=還有 (容祖兒合唱)
TTITLE10=我感到疲倦
TTITLE11=我會知道幾時要退
TTITLE12=誰明浪子心 (趙學而合唱)
TTITLE13=何謂情深
TTITLE14=今生無侮
TTITLE15=幾分傷心幾心痴
TTITLE16=我會等你
EXTD=
EXTT0=
EXTT1=
EXTT2=
EXTT3=
EXTT4=
EXTT5=
EXTT6=
EXTT7=
EXTT8=
EXTT9=
EXTT10=
EXTT11=
EXTT12=
EXTT13=
EXTT14=
EXTT15=
EXTT16=
PLAYORDER=
